<?xml version="1.0" encoding="utf-8"?>
<!-- Generator: Adobe Illustrator 25.2.3, SVG Export Plug-In . SVG Version: 6.00 Build 0)  -->
<svg version="1.1" id="Layer_1" xmlns="http://www.w3.org/2000/svg" xmlns:xlink="http://www.w3.org/1999/xlink" x="0px" y="0px"
	 viewBox="0 0 500 500" style="enable-background:new 0 0 500 500;" xml:space="preserve">
<style type="text/css">
	.st0{fill:#FFFFFF;}
	.st1{fill:#1D1D1B;}
</style>
<g>
	<rect x="6.5" y="6.5" class="st0" width="487" height="487"/>
	<path class="st1" d="M487,13v474H13V13H487 M500,0H0v500h500V0L500,0z"/>
</g>
<g>
	<rect x="6.5" y="6.5" class="st0" width="306.7" height="487"/>
	<path class="st1" d="M306.7,13v474H13V13H306.7 M319.7,0H0v500h319.7V0L319.7,0z"/>
</g>
<g>
	<rect x="6.5" y="147.5" class="st0" width="306.7" height="346"/>
	<path class="st1" d="M306.7,154v333H13V154H306.7 M319.7,141H0v359h319.7V141L319.7,141z"/>
</g>
<g>
	<rect x="313.5" y="341.5" class="st0" width="180" height="152"/>
	<path class="st1" d="M487,348v139H320V348H487 M500,335H307v165h193V335L500,335z"/>
</g>
</svg>
